<svg width="10" height="11" viewBox="0 0 10 11" fill="none" xmlns="http://www.w3.org/2000/svg">
<path fill-rule="evenodd" clip-rule="evenodd" d="M4.58311 0.526202C3.64 0.625365 2.69086 1.0203 1.93907 1.62636C1.54792 1.94169 1.10886 2.44599 0.825259 2.90567C0.302501 3.75301 0.0334991 4.86669 0.113249 5.85342C0.193952 6.85204 0.508331 7.69501 1.10153 8.50342C1.30043 8.77449 1.79141 9.27086 2.06484 9.47729C3.00302 10.1856 4.14134 10.5429 5.30963 10.4959C6.46887 10.4492 7.43313 10.1054 8.22894 9.45516C8.46972 9.2584 8.82066 8.88159 9.00636 8.62043C9.71913 7.61802 10.0363 6.18967 9.8465 4.83692C9.82733 4.70036 9.81165 4.58512 9.81165 4.58085C9.81165 4.57659 8.75034 4.57309 7.45319 4.57309H5.09472L5.10094 5.54376L5.10716 6.51443L6.45896 6.52058C7.77886 6.52658 7.81075 6.52782 7.81075 6.57296C7.81075 6.64897 7.69122 7.00439 7.61414 7.15758C7.49847 7.38744 7.36243 7.57379 7.16942 7.7668C6.79096 8.14526 6.30608 8.38699 5.7059 8.49639C5.39979 8.5522 4.81608 8.55068 4.54738 8.49339C3.31271 8.23015 2.36995 7.25193 2.15324 6.00921C2.10722 5.74526 2.10784 5.25544 2.15455 4.98711C2.36905 3.75455 3.29246 2.7901 4.52742 2.50878C4.796 2.44761 5.44426 2.45271 5.72789 2.51824C6.15594 2.61714 6.55181 2.80827 6.87083 3.0701L7.04179 3.21043L7.74063 2.51131L8.43947 1.81216L8.39309 1.76071C8.20686 1.55411 7.67186 1.19179 7.25098 0.987242C6.44824 0.597114 5.48762 0.431111 4.58311 0.526202Z" fill="black" fill-opacity="0.5"/>
</svg>
